{
  "accessors": [
    {
      "bufferView": 2,
      "componentType": 5126,
      "count": 45128,
      "max": [
        0.3017198443412781,
        2.4114677906036377,
        1.6513099670410156
      ],
      "min": [
        -0.30171990394592285,
        -1.8214972019195557,
        -0.3015064597129822
      ],
      "type": "VEC3"
    },
    {
      "bufferView": 2,
      "byteOffset": 541536,
      "componentType": 5126,
      "count": 45128,
      "max": [
        1.0,
        1.0,
        1.0
      ],
      "min": [
        -1.0,
        -0.9999969005584717,
        -1.0
      ],
      "type": "VEC3"
    },
    {
      "bufferView": 3,
      "componentType": 5126,
      "count": 45128,
      "max": [
        1.0,
        0.999991238117218,
        1.0,
        1.0
      ],
      "min": [
        -1.0,
        -0.9999845027923584,
        -1.0,
        -1.0
      ],
      "type": "VEC4"
    },
    {
      "bufferView": 1,
      "componentType": 5126,
      "count": 45128,
      "max": [
        0.9681544303894043,
        0.9776357412338257
      ],
      "min": [
        0.04206281900405884,
        0.0276138074696064
      ],
      "type": "VEC2"
    },
    {
      "bufferView": 1,
      "byteOffset": 361024,
      "componentType": 5126,
      "count": 45128,
      "max": [
        0.9681544303894043,
        0.9776357412338257
      ],
      "min": [
        0.04206281900405884,
        0.0276138074696064
      ],
      "type": "VEC2"
    },
    {
      "bufferView": 0,
      "componentType": 5125,
      "count": 244074,
      "type": "SCALAR"
    },
    {
      "bufferView": 2,
      "byteOffset": 1083072,
      "componentType": 5126,
      "count": 6130,
      "max": [
        0.14880546927452087,
        1.9626983404159546,
        1.6510868072509766
      ],
      "min": [
        -0.14880533516407013,
        1.8771249055862427,
        1.1957051753997803
      ],
      "type": "VEC3"
    },
    {
      "bufferView": 2,
      "byteOffset": 1156632,
      "componentType": 5126,
      "count": 6130,
      "max": [
        0.9999967217445374,
        0.9995198249816895,
        0.9997729063034058
      ],
      "min": [
        -0.9999966621398926,
        -1.0,
        -0.999518871307373
      ],
      "type": "VEC3"
    },
    {
      "bufferView": 1,
      "byteOffset": 722048,
      "componentType": 5126,
      "count": 6130,
      "max": [
        0.6147058010101318,
        0.966659426689148
      ],
      "min": [
        0.3440876603126526,
        0.285899817943573
      ],
      "type": "VEC2"
    },
    {
      "bufferView": 0,
      "byteOffset": 976296,
      "componentType": 5125,
      "count": 31878,
      "type": "SCALAR"
    }
  ],
  "asset": {
    "extras": {
      "author": "Full Barrel Productions (https://sketchfab.com/Full_Barrel_Production)",
      "license": "CC-BY-4.0 (http://creativecommons.org/licenses/by/4.0/)",
      "source": "https://sketchfab.com/3d-models/urban-street-light-530804b1064b4baf8946ff03df09e5c3",
      "title": "Urban Street Light"
    },
    "generator": "Sketchfab-15.5.0",
    "version": "2.0"
  },
  "bufferViews": [
    {
      "buffer": 0,
      "byteLength": 1103808,
      "name": "floatBufferViews",
      "target": 34963
    },
    {
      "buffer": 0,
      "byteLength": 771088,
      "byteOffset": 1103808,
      "byteStride": 8,
      "name": "floatBufferViews",
      "target": 34962
    },
    {
      "buffer": 0,
      "byteLength": 1230192,
      "byteOffset": 1874896,
      "byteStride": 12,
      "name": "floatBufferViews",
      "target": 34962
    },
    {
      "buffer": 0,
      "byteLength": 722048,
      "byteOffset": 3105088,
      "byteStride": 16,
      "name": "floatBufferViews",
      "target": 34962
    }
  ],
  "buffers": [
    {
      "byteLength": 3827136,
      "uri": "scene.bin"
    }
  ],
  "images": [
    {
      "uri": "textures/Lamp_Post_-_Green_baseColor.png"
    },
    {
      "uri": "textures/Lamp_Post_-_Green_normal.png"
    }
  ],
  "materials": [
    {
      "doubleSided": true,
      "name": "Lamp_Post_-_Green",
      "normalTexture": {
        "index": 1
      },
      "pbrMetallicRoughness": {
        "baseColorTexture": {
          "index": 0
        },
        "roughnessFactor": 0.845455
      }
    },
    {
      "doubleSided": true,
      "emissiveFactor": [
        0.6516,
        0.593882,
        0.337108
      ],
      "name": "Lamp_Post_-_Light",
      "pbrMetallicRoughness": {
        "baseColorFactor": [
          0.8,
          0.8,
          0.8,
          1.0
        ],
        "metallicFactor": 0.0,
        "roughnessFactor": 0.5
      }
    }
  ],
  "meshes": [
    {
      "name": "Object_0",
      "primitives": [
        {
          "attributes": {
            "NORMAL": 1,
            "POSITION": 0,
            "TANGENT": 2,
            "TEXCOORD_0": 3,
            "TEXCOORD_1": 4
          },
          "indices": 5,
          "material": 0,
          "mode": 4
        }
      ]
    },
    {
      "name": "Object_1",
      "primitives": [
        {
          "attributes": {
            "NORMAL": 7,
            "POSITION": 6,
            "TEXCOORD_0": 8
          },
          "indices": 9,
          "material": 1,
          "mode": 4
        }
      ]
    }
  ],
  "nodes": [
    {
      "children": [
        1
      ],
      "matrix": [
        1.0,
        0.0,
        0.0,
        0.0,
        0.0,
        2.220446049250313e-16,
        -1.0,
        0.0,
        0.0,
        1.0,
        2.220446049250313e-16,
        0.0,
        0.0,
        0.0,
        0.0,
        1.0
      ],
      "name": "Sketchfab_model"
    },
    {
      "children": [
        2
      ],
      "name": "root"
    },
    {
      "children": [
        3
      ],
      "matrix": [
        1.0,
        0.0,
        0.0,
        0.0,
        0.0,
        2.220446049250313e-16,
        1.0,
        0.0,
        0.0,
        -1.0,
        2.220446049250313e-16,
        0.0,
        0.0,
        0.0,
        0.0,
        1.0
      ],
      "name": "GLTF_SceneRootNode"
    },
    {
      "children": [
        4,
        5
      ],
      "matrix": [
        1.0,
        0.0,
        0.0,
        0.0,
        0.0,
        1.0,
        0.0,
        0.0,
        0.0,
        0.0,
        1.0,
        0.0,
        0.0,
        1.821496844291687,
        0.0,
        1.0
      ],
      "name": "Street Light_0"
    },
    {
      "mesh": 0,
      "name": "Object_4"
    },
    {
      "mesh": 1,
      "name": "Object_5"
    }
  ],
  "samplers": [
    {
      "magFilter": 9729,
      "minFilter": 9987,
      "wrapS": 10497,
      "wrapT": 10497
    }
  ],
  "scene": 0,
  "scenes": [
    {
      "name": "Sketchfab_Scene",
      "nodes": [
        0
      ]
    }
  ],
  "textures": [
    {
      "sampler": 0,
      "source": 0
    },
    {
      "sampler": 0,
      "source": 1
    }
  ]
}
